<?xml version="1.0" standalone="no"?>
<!DOCTYPE svg PUBLIC "-//W3C//DTD SVG 20010904//EN"
 "http://www.w3.org/TR/2001/REC-SVG-20010904/DTD/svg10.dtd">
<svg version="1.0" xmlns="http://www.w3.org/2000/svg"
 width="1791.000000pt" height="1791.000000pt" viewBox="0 0 1791.000000 1791.000000"
 preserveAspectRatio="xMidYMid meet">
<metadata>
Created by potrace 1.11, written by Peter Selinger 2001-2013
</metadata>
<g transform="translate(0.000000,1791.000000) scale(0.100000,-0.100000)"
fill="#000000" stroke="none">
<path d="M8540 16494 c-331 -19 -806 -79 -1095 -138 -281 -58 -314 -65 -475
-107 -994 -259 -1914 -702 -2730 -1315 -1047 -787 -1880 -1838 -2389 -3017
-324 -751 -511 -1488 -588 -2322 -22 -241 -25 -943 -5 -1165 77 -854 256
-1583 566 -2312 388 -912 928 -1704 1637 -2404 253 -250 404 -384 654 -580
1399 -1101 3175 -1694 4970 -1661 756 14 1430 118 2138 328 1844 549 3418
1761 4394 3384 699 1162 1063 2470 1063 3820 0 411 -50 927 -130 1348 -325
1697 -1223 3214 -2572 4343 -915 766 -2032 1321 -3213 1598 -383 89 -716 142
-1160 182 -161 15 -899 27 -1065 18z m3781 -2040 c109 -239 251 -780 304
-1163 64 -468 72 -1057 19 -1476 -62 -492 -265 -1156 -521 -1709 -36 -77 -69
-159 -74 -181 -4 -22 -8 -218 -9 -435 0 -515 -24 -962 -75 -1455 -57 -538
-131 -790 -315 -1070 -135 -204 -295 -338 -456 -380 -76 -20 -234 -19 -332 1
-178 36 -300 92 -534 246 -172 113 -214 147 -568 452 l-275 237 -65 -7 c-36
-4 -94 -10 -129 -13 -41 -4 -67 -11 -72 -21 -5 -8 -61 -276 -124 -595 -80
-401 -121 -588 -134 -605 -26 -36 -74 -47 -115 -28 -18 9 -185 114 -372 234
-186 119 -347 219 -357 222 -17 4 -17 2 1 -44 55 -143 227 -561 234 -570 5 -7
25 -15 46 -19 97 -18 154 -77 155 -162 0 -27 -7 -62 -16 -80 -20 -38 -45 -3
210 -287 118 -132 175 -188 210 -206 78 -41 93 -95 40 -152 -20 -22 -30 -65
-76 -341 -41 -246 -51 -328 -46 -371 5 -35 3 -66 -6 -90 -10 -27 -10 -50 -2
-103 12 -71 139 -762 148 -799 3 -12 21 -31 40 -43 19 -11 43 -36 52 -55 54
-114 -105 -212 -189 -117 -37 41 -38 100 -4 150 l25 36 -79 425 c-44 234 -80
428 -80 431 0 3 -18 13 -40 22 -26 10 -47 28 -61 51 -17 30 -32 39 -82 55 -34
10 -205 62 -379 116 l-318 97 -47 -31 c-25 -17 -56 -31 -68 -31 -13 0 -27 -6
-33 -13 -6 -7 -60 -237 -120 -512 -108 -492 -109 -500 -92 -530 28 -50 32 -82
15 -122 l-16 -38 178 -433 178 -433 42 -10 c111 -29 143 -163 57 -238 -86 -76
-224 -14 -224 101 0 18 12 53 25 77 l25 44 -159 386 c-217 525 -194 478 -230
486 -38 8 -79 49 -89 89 -6 25 -116 121 -597 524 -456 380 -595 491 -610 487
-93 -26 -147 -6 -177 62 -31 70 -3 140 69 170 32 13 45 35 169 291 75 152 145
298 156 324 l20 47 -21 28 c-62 80 13 70 -632 89 l-576 18 -40 -34 -40 -33 -6
-426 c-4 -234 -7 -532 -7 -662 l0 -236 25 -13 c14 -8 35 -28 45 -46 72 -116
-68 -257 -181 -181 -46 31 -61 62 -56 121 4 41 10 55 44 87 l40 38 7 655 8
655 -40 38 c-21 21 -41 45 -44 53 -4 12 -42 17 -194 27 -180 11 -190 10 -220
-8 -37 -23 -75 -24 -113 -5 -25 14 -59 9 -416 -60 -214 -40 -390 -76 -392 -78
-3 -2 -12 -19 -22 -37 -41 -77 -140 -89 -198 -25 -26 28 -33 44 -33 76 0 122
121 176 214 95 16 -14 31 -25 34 -25 3 0 172 32 376 71 263 50 374 75 381 86
30 46 60 74 88 81 26 7 79 67 300 341 260 325 267 334 267 378 0 29 7 55 20
73 l20 28 -81 234 c-45 128 -88 252 -96 274 -12 35 -21 44 -59 59 l-45 17 -72
-55 c-40 -30 -124 -95 -187 -143 -64 -49 -209 -161 -323 -248 l-207 -159 0
-50 c0 -92 -51 -155 -134 -164 -150 -17 -233 167 -121 266 46 40 91 47 154 26
l51 -17 336 259 c468 358 454 346 454 389 0 77 55 134 129 134 75 0 126 -42
144 -121 6 -23 58 -50 443 -234 l437 -208 25 29 c14 16 37 37 51 46 37 25 114
23 162 -4 l39 -22 22 21 c13 11 187 157 388 323 201 167 365 310 365 319 0 9
-131 99 -330 228 -181 116 -338 222 -347 234 -18 21 -24 73 -12 103 3 8 150
120 327 248 663 481 652 473 650 499 0 13 -18 74 -40 134 l-38 110 -65 33
c-36 17 -204 97 -375 176 -170 78 -354 169 -408 200 -350 203 -534 371 -641
584 -49 97 -66 169 -66 277 0 159 59 315 199 525 128 193 279 334 551 515 366
244 1016 595 1594 860 l258 119 127 151 c257 303 576 622 857 858 402 336 801
572 1342 794 444 181 868 297 1353 367 193 28 231 32 367 34 l93 2 40 -86z"/>
<path d="M12060 14359 c-415 -57 -559 -83 -809 -145 -554 -138 -1172 -403
-1610 -692 -471 -310 -1049 -863 -1427 -1365 -316 -419 -758 -1180 -857 -1477
-157 -468 -200 -1064 -107 -1495 121 -557 473 -1037 947 -1292 467 -250 1028
-289 1573 -107 164 54 334 135 523 248 390 234 511 348 903 856 134 174 395
566 523 785 261 446 506 1043 642 1561 108 414 149 739 149 1184 0 642 -73
1109 -277 1775 -25 83 -50 156 -56 163 -11 13 -23 14 -117 1z m-1932 -2189
c285 -36 537 -162 733 -367 442 -463 449 -1200 14 -1693 -172 -195 -386 -326
-653 -397 -87 -24 -115 -27 -282 -27 -169 -1 -194 2 -290 26 -462 117 -805
474 -900 938 -43 210 -25 473 46 672 202 562 763 919 1332 848z"/>
<path d="M9845 12000 c-714 -111 -1140 -862 -865 -1523 130 -314 431 -553 767
-612 420 -73 846 113 1089 476 252 377 255 844 10 1213 -56 84 -187 218 -266
273 -104 71 -244 131 -375 159 -86 19 -279 26 -360 14z"/>
<path d="M7680 11942 c-240 -115 -458 -229 -765 -400 -700 -389 -920 -568
-1114 -907 -76 -132 -105 -232 -99 -344 4 -78 9 -98 44 -172 48 -99 143 -221
227 -291 72 -59 222 -158 372 -244 128 -73 682 -330 692 -321 3 4 1 51 -6 104
-40 315 -17 666 64 976 28 109 130 412 170 507 132 313 386 774 606 1102 33
48 59 90 59 93 0 14 -41 -3 -250 -103z"/>
<path d="M11859 9590 c-9 -14 -47 -74 -85 -135 -190 -308 -344 -524 -609 -855
-267 -333 -464 -521 -736 -700 -195 -129 -474 -259 -677 -315 -34 -10 -61 -21
-60 -26 4 -12 460 -402 549 -470 121 -92 334 -228 423 -270 137 -64 222 -83
366 -84 l126 0 78 39 c54 26 99 58 140 100 65 64 187 238 236 335 71 142 132
368 169 626 57 400 105 1163 99 1570 -3 198 -4 209 -19 185z"/>
<path d="M6950 8414 c-495 -359 -541 -395 -538 -406 2 -6 44 -37 94 -69 49
-31 301 -192 559 -357 259 -165 529 -338 600 -385 126 -82 715 -461 1018 -655
82 -52 152 -90 157 -86 4 5 54 238 110 518 74 368 99 511 90 516 -6 4 -55 10
-108 13 -354 22 -758 173 -1057 395 -225 166 -485 466 -587 677 -12 24 -26 46
-32 48 -6 3 -144 -92 -306 -209z"/>
<path d="M4752 7280 c-42 -40 -37 -112 12 -145 55 -40 146 7 146 75 0 47 -47
90 -97 90 -26 0 -47 -7 -61 -20z"/>
<path d="M5915 6808 c-100 -88 14 -245 134 -184 33 17 51 54 51 102 0 28 -8
44 -34 70 -29 29 -41 34 -79 34 -33 0 -53 -6 -72 -22z"/>
<path d="M7053 6645 c-24 -16 -37 -57 -28 -86 8 -25 58 -51 82 -42 37 13 53
36 53 74 0 59 -57 89 -107 54z"/>
<path d="M3732 6533 c-19 -9 -41 -31 -49 -49 -47 -98 72 -203 165 -145 76 48
65 153 -20 197 -35 18 -55 17 -96 -3z"/>
<path d="M5027 6472 c-35 -38 -16 -101 34 -117 54 -17 102 73 63 116 -22 24
-76 25 -97 1z"/>
<path d="M8304 5996 c-28 -28 -34 -42 -34 -76 0 -98 95 -159 180 -115 43 22
60 53 60 108 0 42 -5 54 -34 83 -30 30 -40 34 -86 34 -46 0 -56 -4 -86 -34z"/>
<path d="M4380 5640 c-23 -23 -24 -33 -9 -63 15 -28 28 -37 55 -37 50 0 73 76
32 104 -30 21 -54 20 -78 -4z"/>
<path d="M6416 5621 c-66 -44 -90 -144 -48 -200 29 -40 81 -71 119 -71 148 0
206 186 84 267 -43 29 -114 31 -155 4z"/>
<path d="M4971 5603 c-12 -10 -24 -35 -28 -56 -5 -31 -1 -42 17 -62 51 -55
140 -19 140 56 0 67 -78 104 -129 62z"/>
<path d="M3371 5454 c-40 -51 -19 -126 38 -139 70 -15 129 61 97 123 -17 34
-34 42 -81 42 -24 0 -39 -7 -54 -26z"/>
<path d="M8912 5288 c-26 -26 -7 -78 28 -78 19 0 50 30 50 48 0 32 -54 54 -78
30z"/>
<path d="M7679 4877 c-89 -59 -86 -172 4 -227 69 -43 158 -16 191 58 55 121
-85 243 -195 169z"/>
<path d="M6010 4630 c-48 -48 -26 -127 42 -144 85 -21 140 82 78 144 -27 27
-93 27 -120 0z"/>
<path d="M8760 4502 c-49 -16 -68 -83 -32 -115 42 -38 112 -6 112 51 0 40 -44
76 -80 64z"/>
<path d="M4964 4038 c-25 -12 -44 -48 -44 -84 0 -37 51 -84 90 -84 45 0 90 47
90 95 0 68 -70 105 -136 73z"/>
<path d="M7400 3510 c-27 -27 -25 -66 5 -95 46 -47 118 -19 118 45 0 62 -79
94 -123 50z"/>
<path d="M8956 3399 c-52 -41 -20 -129 48 -129 32 0 76 40 76 70 0 27 -52 80
-78 80 -11 0 -31 -9 -46 -21z"/>
<path d="M7861 2446 c-54 -30 -66 -97 -25 -145 21 -26 33 -31 69 -31 57 0 95
36 95 91 0 51 -8 67 -41 84 -34 18 -66 19 -98 1z"/>
</g>
</svg>
